<svg xmlns="http://www.w3.org/2000/svg" width="193.083" height="89" viewBox="0 0 193.083 89">
  <g id="Group_16" data-name="Group 16" transform="translate(0 22)">
    <path id="Path_85" data-name="Path 85" d="M16.745,0A16.745,16.745,0,1,1,0,16.745,16.745,16.745,0,0,1,16.745,0Z" transform="translate(44.956 16.51)" fill="none" stroke="#fff" stroke-width="3"/>
    <text id="d_" data-name="d " transform="translate(0 50)" fill="#fff" font-size="67" font-family="SegoeUI, Segoe UI"><tspan x="0" y="0">d </tspan></text>
    <text id="soft" transform="translate(84.083 50)" fill="#fff" font-size="65" font-family="SegoeUI, Segoe UI"><tspan x="0" y="0">soft</tspan></text>
    <path id="Path_83" data-name="Path 83" d="M492.729,585.589l4.624-4.616a.2.2,0,0,0,0-.28l-4.617-4.624a.2.2,0,0,0-.28,0l-1.277,1.274a.194.194,0,0,0-.057.14.191.191,0,0,0,.057.14l3.2,3.212-3.212,3.2a.2.2,0,0,0,0,.28l1.274,1.276a.2.2,0,0,0,.283-.007Z" transform="translate(-435.116 -547.782)" fill="#fff"/>
    <path id="Path_84" data-name="Path 84" d="M0,0H6.726" transform="translate(61.876 37.194)" fill="none" stroke="#fff" stroke-width="2"/>
  </g>
</svg>
