<svg xmlns="http://www.w3.org/2000/svg" xmlns:xlink="http://www.w3.org/1999/xlink" viewBox="0 0 251.09 182.79"><defs><style>.cls-1{fill:url(#Degradado_sin_nombre_144);}.cls-2{fill:url(#Degradado_sin_nombre_119);}.cls-3{fill:url(#Degradado_sin_nombre_119-2);}.cls-4{fill:url(#Degradado_sin_nombre_119-3);}.cls-5{fill:url(#Degradado_sin_nombre_119-4);}.cls-6{fill:url(#Degradado_sin_nombre_119-5);}.cls-7{fill:url(#Degradado_sin_nombre_119-6);}.cls-8{fill:#8ac7c8;}.cls-9{isolation:isolate;}.cls-10{fill:url(#Degradado_sin_nombre_144-2);}.cls-11{fill:url(#Degradado_sin_nombre_162);}.cls-12{fill:url(#Degradado_sin_nombre_162-2);}.cls-13{fill:url(#Degradado_sin_nombre_144-3);}.cls-14{fill:#a19ae6;}.cls-15{fill:url(#Degradado_sin_nombre_119-7);}.cls-16{fill:url(#Degradado_sin_nombre_162-3);}.cls-17{fill:url(#Degradado_sin_nombre_152);}.cls-18{fill:url(#Degradado_sin_nombre_98);}.cls-19{clip-path:url(#clip-path);}.cls-20,.cls-21,.cls-22,.cls-23,.cls-24{opacity:0.44;}.cls-20,.cls-21,.cls-22,.cls-23,.cls-24,.cls-25{mix-blend-mode:screen;}.cls-20{fill:url(#Degradado_sin_nombre_8);}.cls-21{fill:url(#Degradado_sin_nombre_8-2);}.cls-22{fill:url(#Degradado_sin_nombre_8-3);}.cls-23{fill:url(#Degradado_sin_nombre_8-4);}.cls-24{fill:url(#Degradado_sin_nombre_8-5);}.cls-25,.cls-32{fill:#fff;}.cls-25{opacity:0.28;}.cls-26{fill:url(#Degradado_sin_nombre_98-2);}.cls-27{clip-path:url(#clip-path-2);}.cls-28{fill:#bc893b;opacity:0.49;}.cls-29{clip-path:url(#clip-path-3);}.cls-30{clip-path:url(#clip-path-4);}.cls-31{fill:#f3d67d;}.cls-33{clip-path:url(#clip-path-5);}.cls-34{fill:#606060;opacity:0.22;mix-blend-mode:multiply;}.cls-35{clip-path:url(#clip-path-6);}.cls-36{clip-path:url(#clip-path-7);}.cls-37{fill:#263746;}.cls-38{fill:#44617d;}.cls-39{fill:url(#Degradado_sin_nombre_119-14);}.cls-40{fill:none;stroke:#44617d;stroke-miterlimit:10;stroke-width:0.47px;}.cls-41{fill:url(#Degradado_sin_nombre_119-15);}.cls-42{fill:url(#Degradado_sin_nombre_119-16);}.cls-43{clip-path:url(#clip-path-8);}.cls-44{fill:#e9f8f7;opacity:0.35;}.cls-45{fill:#aa812e;}.cls-46{fill:url(#Degradado_sin_nombre_119-17);}</style><linearGradient id="Degradado_sin_nombre_144" x1="-24.61" y1="112.76" x2="84.97" y2="112.76" gradientTransform="matrix(1, 0, 0, -1, 59.36, 225.52)" gradientUnits="userSpaceOnUse"><stop offset="0.01" stop-color="#98e5c9"/><stop offset="0.37" stop-color="#90d4c7"/><stop offset="1" stop-color="#7dadc4"/></linearGradient><linearGradient id="Degradado_sin_nombre_119" x1="51.32" y1="142.29" x2="101.14" y2="142.29" gradientTransform="matrix(-1, 0, 0, 1, 119.73, 0)" gradientUnits="userSpaceOnUse"><stop offset="0.01" stop-color="#eec851"/><stop offset="0.53" stop-color="#ecb746"/><stop offset="1" stop-color="#e9a43a"/></linearGradient><linearGradient id="Degradado_sin_nombre_119-2" x1="41.05" y1="154.46" x2="101.14" y2="154.46" xlink:href="#Degradado_sin_nombre_119"/><linearGradient id="Degradado_sin_nombre_119-3" x1="65.43" y1="131.54" x2="86.39" y2="131.54" xlink:href="#Degradado_sin_nombre_119"/><linearGradient id="Degradado_sin_nombre_119-4" x1="-19.4" y1="126.64" x2="-8.4" y2="145.7" gradientTransform="matrix(1, 0, 0, -1, 147.53, 272.34)" xlink:href="#Degradado_sin_nombre_119"/><linearGradient id="Degradado_sin_nombre_119-5" x1="30.17" y1="126.64" x2="41.18" y2="145.7" gradientTransform="matrix(1, 0, 0, -1, 48.37, 272.34)" xlink:href="#Degradado_sin_nombre_119"/><linearGradient id="Degradado_sin_nombre_119-6" x1="-19.86" y1="123.24" x2="42.04" y2="123.24" gradientTransform="matrix(1, 0, 0, -1, 97.55, 246.48)" xlink:href="#Degradado_sin_nombre_119"/><linearGradient id="Degradado_sin_nombre_144-2" x1="55.42" y1="85.89" x2="119.73" y2="85.89" gradientTransform="matrix(-1, 0, 0, 1, 119.73, 0)" xlink:href="#Degradado_sin_nombre_144"/><linearGradient id="Degradado_sin_nombre_162" x1="-15.7" y1="71.73" x2="14.18" y2="71.73" gradientTransform="matrix(-1, 0, 0, 1, 119.73, 0)" gradientUnits="userSpaceOnUse"><stop offset="0.01" stop-color="#e0837d"/><stop offset="0.47" stop-color="#de727d"/><stop offset="1" stop-color="#da5a7c"/></linearGradient><linearGradient id="Degradado_sin_nombre_162-2" x1="87.56" y1="135.28" x2="110.15" y2="135.28" xlink:href="#Degradado_sin_nombre_162"/><linearGradient id="Degradado_sin_nombre_144-3" x1="-37.48" y1="109.18" x2="-22.34" y2="109.18" gradientTransform="matrix(-1, 0, 0, 1, 119.73, 0)" xlink:href="#Degradado_sin_nombre_144"/><linearGradient id="Degradado_sin_nombre_119-7" x1="78.08" y1="85.92" x2="98.92" y2="85.92" xlink:href="#Degradado_sin_nombre_119"/><linearGradient id="Degradado_sin_nombre_162-3" x1="15.91" y1="64.44" x2="28.68" y2="64.44" xlink:href="#Degradado_sin_nombre_162"/><linearGradient id="Degradado_sin_nombre_152" x1="-43.31" y1="131.51" x2="-16.54" y2="131.51" gradientTransform="matrix(-1, 0, 0, 1, 119.73, 0)" gradientUnits="userSpaceOnUse"><stop offset="0.01" stop-color="#80bfdb"/><stop offset="0.27" stop-color="#78aedb"/><stop offset="0.79" stop-color="#6482d9"/><stop offset="1" stop-color="#5b6fd9"/></linearGradient><linearGradient id="Degradado_sin_nombre_98" x1="-28.16" y1="112.66" x2="88.53" y2="112.66" gradientTransform="matrix(1, 0, 0, -1, 59.36, 225.32)" gradientUnits="userSpaceOnUse"><stop offset="0.01" stop-color="#eaf4f6"/><stop offset="0.52" stop-color="#dee3e5"/><stop offset="1" stop-color="#cfcfd1"/></linearGradient><clipPath id="clip-path" transform="translate(17.99 6.12)"><rect class="cls-1" x="34.76" y="79.21" width="109.58" height="67.11" transform="translate(179.09 225.52) rotate(180)"/></clipPath><linearGradient id="Degradado_sin_nombre_8" x1="-4.45" y1="157.52" x2="-4.45" y2="60.68" gradientTransform="matrix(0.8, 0.59, 0.59, -0.8, 62.85, 199.44)" gradientUnits="userSpaceOnUse"><stop offset="0" stop-color="#fff"/><stop offset="1" stop-color="#f1f1f1" stop-opacity="0"/></linearGradient><linearGradient id="Degradado_sin_nombre_8-2" x1="-363.21" y1="-176.38" x2="-293.15" y2="-176.38" gradientTransform="matrix(0.8, 0.59, 0.59, -0.8, 501.15, 152.06)" xlink:href="#Degradado_sin_nombre_8"/><linearGradient id="Degradado_sin_nombre_8-3" x1="162.11" y1="-37.11" x2="232.17" y2="-37.11" gradientTransform="matrix(-0.8, -0.59, -0.59, 0.8, 198.14, 264.45)" xlink:href="#Degradado_sin_nombre_8"/><linearGradient id="Degradado_sin_nombre_8-4" x1="30.54" y1="120.39" x2="98.58" y2="120.39" gradientTransform="matrix(0.8, 0.59, 0.59, -0.8, -68.34, 178.77)" xlink:href="#Degradado_sin_nombre_8"/><linearGradient id="Degradado_sin_nombre_8-5" x1="6.34" y1="109.72" x2="74.39" y2="109.72" gradientTransform="matrix(0.8, 0.59, 0.59, -0.8, -18.35, 173.91)" xlink:href="#Degradado_sin_nombre_8"/><linearGradient id="Degradado_sin_nombre_98-2" x1="-44.53" y1="150.73" x2="104.89" y2="150.73" gradientTransform="matrix(-1, 0, 0, 1, 119.73, 0)" xlink:href="#Degradado_sin_nombre_98"/><clipPath id="clip-path-2" transform="translate(17.99 6.12)"><path class="cls-2" d="M18.58,158.23c0,.11,49.83.11,49.83,0,0-13.76-4.49-32-24.91-32C21.58,126.26,18.58,144.47,18.58,158.23Z"/></clipPath><clipPath id="clip-path-3" transform="translate(17.99 6.12)"><path class="cls-3" d="M18.58,158.34H77a1.7,1.7,0,0,0,1.7-1.7h0a1.71,1.71,0,0,0-1-1.54l-9.77-4.51s-11.7,2.62-35.22,0Z"/></clipPath><clipPath id="clip-path-4" transform="translate(17.99 6.12)"><path class="cls-4" d="M44,139.3s.84-11-10.7-11.37c0,0,.44-5.31,8.14-6s12.83,4.49,12.83,17.11C54.3,139.09,48.74,143.58,44,139.3Z"/></clipPath><clipPath id="clip-path-5" transform="translate(17.99 6.12)"><rect class="cls-5" x="131.68" y="124.58" width="3.89" height="23.18" transform="translate(267.25 272.34) rotate(180)"/></clipPath><clipPath id="clip-path-6" transform="translate(17.99 6.12)"><rect class="cls-6" x="82.11" y="124.58" width="3.89" height="23.18" transform="translate(168.1 272.34) rotate(180)"/></clipPath><clipPath id="clip-path-7" transform="translate(17.99 6.12)"><rect class="cls-7" x="77.69" y="120.56" width="61.9" height="5.36" transform="translate(217.27 246.48) rotate(180)"/></clipPath><linearGradient id="Degradado_sin_nombre_119-14" x1="663.47" y1="164.55" x2="729.35" y2="164.55" gradientTransform="matrix(-1, 0, 0, 1, 879.73, 0)" xlink:href="#Degradado_sin_nombre_119"/><linearGradient id="Degradado_sin_nombre_119-15" x1="646.62" y1="93.92" x2="798.34" y2="93.92" gradientTransform="matrix(-1, 0, 0, 1, 879.73, 0)" xlink:href="#Degradado_sin_nombre_119"/><linearGradient id="Degradado_sin_nombre_119-16" x1="683.75" y1="21.43" x2="709.35" y2="21.43" gradientTransform="matrix(-1, 0, 0, 1, 879.73, 0)" xlink:href="#Degradado_sin_nombre_119"/><clipPath id="clip-path-8" transform="translate(17.99 6.12)"><path class="cls-8" d="M191.9,26.07H174.45a1.34,1.34,0,0,1-1.34-1.34V12.54A10.06,10.06,0,0,1,183.17,2.47h0a10.07,10.07,0,0,1,10.07,10.07V24.73A1.34,1.34,0,0,1,191.9,26.07Z"/></clipPath><linearGradient id="Degradado_sin_nombre_119-17" x1="660.65" y1="62.46" x2="677.15" y2="62.46" gradientTransform="matrix(1, 0, 0, -1, -458.07, 124.91)" xlink:href="#Degradado_sin_nombre_119"/></defs><title>Zasób 3</title><g class="cls-9"><g id="Warstwa_2" data-name="Warstwa 2"><g id="OBJECTS"><path class="cls-10" d="M6.94,95.19a26.55,26.55,0,0,0,2.67,5.36l-3.4,4.55,4.25,5.29,5.85-2.76A26.86,26.86,0,0,0,20.2,110c-.38,2.28-.86,5.22-.86,5.22l6.2,2.75,4.05-5.31a27.7,27.7,0,0,0,2.89.12c.56,0,1.11,0,1.65-.08.83,2.14,1.89,4.83,1.89,4.83l6.74-.81.75-6.51a27,27,0,0,0,4.25-2.51L52.1,111l5.34-4.19-2.88-6.27A28,28,0,0,0,56.5,97l5.36.63,2.44-6.33-5.5-3.8c0-.62.05-1.24,0-1.87s-.05-1.41-.12-2.11l5-2.35-1.25-6.67-6.39-.31a27.4,27.4,0,0,0-1.78-3.06c1.33-1.95,3.24-4.78,3.24-4.78l-4.49-5.09-5.52,2.93a25.71,25.71,0,0,0-4-2.33c.13-2.35.28-5.63.28-5.63l-6.47-2-3.07,5.15a25.88,25.88,0,0,0-2.65-.09l-.48,0c-1.09-2.09-2.87-5.43-2.87-5.43l-6.6,1.57v5.92a27.27,27.27,0,0,0-3.87,2l-5.15-3.44L7.63,64.42l3,5.56a26.46,26.46,0,0,0-2.15,3.38L3.21,72.8.84,79.16l4.72,3.17a27.5,27.5,0,0,0-.24,3.41L0,88.2l1.21,6.68Zm2-9.25a23.57,23.57,0,1,1,23.92,23.21A23.57,23.57,0,0,1,9,85.94Z" transform="translate(17.99 6.12)"/><path class="cls-11" d="M108.77,76.05A12.58,12.58,0,0,0,110,78.54c-.66.87-1.58,2.11-1.58,2.11l2,2.46,2.72-1.28a12.78,12.78,0,0,0,1.81,1.09c-.18,1.07-.4,2.43-.4,2.43l2.89,1.28,1.88-2.47c.44,0,.89.06,1.34.06l.77,0c.38,1,.88,2.25.88,2.25l3.13-.38.34-3a12.27,12.27,0,0,0,2-1.17l2,1.55,2.49-2-1.34-2.92a12.52,12.52,0,0,0,.9-1.65l2.49.29,1.14-3-2.56-1.76a8.42,8.42,0,0,0,0-.87c0-.33,0-.66-.06-1l2.33-1.09-.58-3.1-3-.15a11.2,11.2,0,0,0-.83-1.42l1.51-2.22-2.09-2.37-2.56,1.36a13,13,0,0,0-1.84-1.08c.06-1.09.13-2.61.13-2.61l-3-.94-1.43,2.39c-.4,0-.81-.05-1.23,0H120l-1.34-2.53-3.06.73v2.76a11.67,11.67,0,0,0-1.79.93l-2.4-1.6-2.35,2.11,1.4,2.58a12.26,12.26,0,0,0-1,1.57L107,65.64l-1.11,3,2.2,1.47a11.9,11.9,0,0,0-.11,1.59l-2.48,1.14.57,3.1Zm.94-4.3a11,11,0,1,1,11.11,10.79A10.94,10.94,0,0,1,109.71,71.75Z" transform="translate(17.99 6.12)"/><path class="cls-12" d="M12,138.55a10,10,0,0,0,.94,1.88L11.76,142l1.49,1.86,2.06-1a9.88,9.88,0,0,0,1.36.83l-.3,1.83,2.18,1L20,144.68a8.7,8.7,0,0,0,1,0,5.63,5.63,0,0,0,.58,0c.29.76.66,1.7.66,1.7l2.37-.28.26-2.29a9.36,9.36,0,0,0,1.5-.88l1.52,1.16,1.88-1.47-1-2.2a10.86,10.86,0,0,0,.68-1.26l1.88.22.86-2.22-1.93-1.34c0-.21,0-.43,0-.65s0-.5,0-.74l1.76-.83-.44-2.34-2.25-.11a8.88,8.88,0,0,0-.62-1.08c.47-.68,1.14-1.68,1.14-1.68l-1.58-1.79-1.94,1a9.17,9.17,0,0,0-1.39-.81c0-.83.1-2,.1-2l-2.28-.71L21.63,126c-.3,0-.61,0-.92,0h-.17l-1-1.91-2.32.56v2.08a9.58,9.58,0,0,0-1.35.7L14,126.15l-1.78,1.59,1.05,2a9.16,9.16,0,0,0-.75,1.19l-1.85-.2-.84,2.24L11.53,134a9.42,9.42,0,0,0-.08,1.2l-1.87.86.42,2.35Zm.71-3.25a8.28,8.28,0,1,1,8.41,8.15A8.29,8.29,0,0,1,12.72,135.3Z" transform="translate(17.99 6.12)"/><path class="cls-13" d="M143.7,111.37a6.18,6.18,0,0,0,.63,1.26l-.8,1.07,1,1.25,1.38-.65a6,6,0,0,0,.91.55c-.09.54-.2,1.24-.2,1.24l1.46.64.95-1.25c.23,0,.45,0,.68,0l.39,0,.45,1.14,1.58-.19.18-1.53a6.31,6.31,0,0,0,1-.6l1,.78,1.26-1-.68-1.48a6.85,6.85,0,0,0,.46-.84l1.26.15.58-1.49-1.3-.9c0-.14,0-.29,0-.44a4,4,0,0,0,0-.49l1.18-.56-.29-1.57-1.51-.07a5.2,5.2,0,0,0-.42-.72l.77-1.13-1.06-1.2-1.3.69a6.62,6.62,0,0,0-.93-.54c0-.56.06-1.33.06-1.33l-1.52-.48-.72,1.22a4.42,4.42,0,0,0-.63,0h-.11l-.68-1.28-1.55.37v1.4a6,6,0,0,0-.91.47l-1.22-.81-1.19,1.07.71,1.31a5.92,5.92,0,0,0-.51.79l-1.24-.13-.56,1.5,1.12.74a5.42,5.42,0,0,0-.06.81l-1.25.57.28,1.58Zm.48-2.18a5.55,5.55,0,1,1,5.63,5.47A5.55,5.55,0,0,1,144.18,109.19Z" transform="translate(17.99 6.12)"/><path class="cls-14" d="M17.23,90.8a15.5,15.5,0,0,0,1.43,3l-1.92,2.49,2.31,3,3.26-1.48a14.77,14.77,0,0,0,2.14,1.34c-.23,1.26-.52,2.89-.52,2.89l3.41,1.57,2.28-2.91a14.21,14.21,0,0,0,1.61.09c.3,0,.61,0,.91,0,.44,1.2,1,2.7,1,2.7l3.73-.4.47-3.59a15.1,15.1,0,0,0,2.38-1.36l2.37,1.87,3-2.27-1.54-3.5a15.1,15.1,0,0,0,1.1-2l3,.39L49,89.1,46,87c0-.35,0-.69,0-1s0-.78,0-1.17l2.79-1.26-.64-3.7-3.53-.23a14.37,14.37,0,0,0-1-1.71l1.83-2.62-2.44-2.85L40,74a15,15,0,0,0-2.17-1.32c.09-1.3.2-3.11.2-3.11l-3.57-1.18-1.74,2.83a14.13,14.13,0,0,0-1.46-.08H31l-1.55-3-3.67.81,0,3.29a15.49,15.49,0,0,0-2.16,1.07L20.71,71.3l-2.84,2.46,1.62,3.11a14.42,14.42,0,0,0-1.22,1.85l-2.92-.35L14,81.87l2.58,1.8a16.43,16.43,0,0,0-.16,1.88l-3,1.31.62,3.71Zm1.19-5.11a13.06,13.06,0,1,1,13.06,13A13.06,13.06,0,0,1,18.42,85.69Z" transform="translate(17.99 6.12)"/><path class="cls-15" d="M20.81,85.92A10.42,10.42,0,1,0,31.23,75.5,10.42,10.42,0,0,0,20.81,85.92Zm5.5.18A4.9,4.9,0,1,1,31.2,91,4.89,4.89,0,0,1,26.31,86.1Z" transform="translate(17.99 6.12)"/><path class="cls-16" d="M92.21,65.57a5.56,5.56,0,0,0,.38,1.13l-.81.8.69,1.17,1.23-.38a6.53,6.53,0,0,0,.7.58l-.32,1,1.14.72,1-.93a5,5,0,0,0,.56.11l.33,0c.1.45.23,1,.23,1l1.36,0L99,69.58a4.82,4.82,0,0,0,.91-.37l.76.78,1.17-.67L101.45,68a6,6,0,0,0,.48-.65l1,.28.67-1.18-1-.91a2.2,2.2,0,0,0,.06-.37c0-.14,0-.28,0-.41l1.06-.32-.06-1.35-1.25-.25a5.32,5.32,0,0,0-.26-.66l.77-.84-.73-1.14-1.18.42a4.92,4.92,0,0,0-.71-.57c.09-.46.22-1.1.22-1.1l-1.22-.59-.75.93-.52-.1H98c-.15-.44-.41-1.15-.41-1.15l-1.34.12-.18,1.17a5,5,0,0,0-.82.28l-.91-.83-1.13.75.43,1.18a5.07,5.07,0,0,0-.52.61l-1-.26-.65,1.18.84.76a5,5,0,0,0-.14.67L91.05,64l0,1.35Zm3.41-1.06a1.88,1.88,0,1,1,1.62,2.1A1.88,1.88,0,0,1,95.62,64.51Z" transform="translate(17.99 6.12)"/><path class="cls-17" d="M139.11,135.26a11.41,11.41,0,0,0,1.09,2.25c-.61.77-1.45,1.87-1.45,1.87l1.74,2.23,2.45-1.11a11.49,11.49,0,0,0,1.61,1c-.18,1-.4,2.17-.4,2.17l2.57,1.18,1.72-2.19a9.71,9.71,0,0,0,1.21.07l.68,0,.76,2,2.81-.29.35-2.71a10.89,10.89,0,0,0,1.79-1l1.79,1.41,2.25-1.71-1.16-2.63a11.24,11.24,0,0,0,.83-1.48l2.23.3L163,134l-2.27-1.62q0-.39,0-.78c0-.3,0-.59,0-.88l2.1-1-.48-2.78-2.66-.17a10.13,10.13,0,0,0-.72-1.29c.57-.8,1.38-2,1.38-2l-1.84-2.15-2.31,1.19a12,12,0,0,0-1.64-1c.07-1,.15-2.34.15-2.34l-2.68-.88-1.31,2.12c-.37,0-.73,0-1.1,0h-.21l-1.16-2.28-2.76.61,0,2.47a11.66,11.66,0,0,0-1.62.81l-2.13-1.46-2.13,1.85,1.22,2.34a10.79,10.79,0,0,0-.92,1.39l-2.2-.26-1,2.63,1.94,1.35a11.18,11.18,0,0,0-.12,1.42l-2.23,1,.46,2.79Zm9.32,3c0-.35.08-.65.08-.65l-1.4-.54-.42.6a7.13,7.13,0,0,1-1.05-.66l.43-.69-1-1.09-.75.43a7.07,7.07,0,0,1-.77-1.3l.66-.3-.29-1.47-.88,0a6.84,6.84,0,0,1-.07-.91c0-.14,0-.28,0-.41l1.27-.07.28-1.47-1.1-.51a6.07,6.07,0,0,1,.51-1l.93.52,1-1.11-.64-1a7.14,7.14,0,0,1,.89-.67l.59.85,1.4-.54s-.07-.61-.13-1.11a6.93,6.93,0,0,1,1.72-.23h.16l.05,1,1.47.27.44-.94a6.69,6.69,0,0,1,1.5.72l-.46.85,1.1,1,.86-.56a6.68,6.68,0,0,1,1.07,1.7l-1,.59.41,1.44,1.12,0a5.37,5.37,0,0,1,0,.7,6.54,6.54,0,0,1-.07.89l-.84-.1-.55,1.39.85.6a6.8,6.8,0,0,1-.86,1.42l-.7-.45-1.1,1,.41.75a8,8,0,0,1-1.31.73l-.4-.74-1.46.37v.84c-.24,0-.48,0-.73,0A7.47,7.47,0,0,1,148.43,138.3Z" transform="translate(17.99 6.12)"/><path class="cls-18" d="M31.2,76.13H147.89a0,0,0,0,1,0,0v69.09a4,4,0,0,1-4,4H34.76a3.56,3.56,0,0,1-3.56-3.56V76.13A0,0,0,0,1,31.2,76.13Z" transform="translate(197.07 231.44) rotate(180)"/><rect class="cls-1" x="34.76" y="79.21" width="109.58" height="67.11" transform="translate(197.07 231.65) rotate(180)"/><g class="cls-19"><rect class="cls-20" x="117.77" y="53.6" width="12.81" height="111" transform="translate(306.87 129.06) rotate(143.5)"/><rect class="cls-21" x="129.92" y="43.11" width="5.02" height="111" transform="translate(-14.7 104.25) rotate(-36.5)"/><rect class="cls-22" x="59.24" y="61.85" width="5.02" height="111" transform="translate(199.17 181.07) rotate(143.5)"/><rect class="cls-23" x="53.92" y="64.89" width="2.51" height="111" transform="matrix(-0.8, 0.59, -0.59, -0.8, 189.12, 190.48)"/><rect class="cls-24" x="78.11" y="54.22" width="2.51" height="111" transform="translate(226.41 156.84) rotate(143.5)"/><rect class="cls-25" x="41.11" y="75.8" width="2.51" height="111" transform="translate(172.51 217.77) rotate(143.5)"/></g><path class="cls-26" d="M19.81,153.22H159.27a5,5,0,0,0,5-5H14.83A5,5,0,0,0,19.81,153.22Z" transform="translate(17.99 6.12)"/><path class="cls-2" d="M18.58,158.23c0,.11,49.83.11,49.83,0,0-13.76-4.49-32-24.91-32C21.58,126.26,18.58,144.47,18.58,158.23Z" transform="translate(17.99 6.12)"/><g class="cls-27"><path class="cls-28" d="M43.5,152s-15.72-11.36-2.25-29.54H13v47.48H44.46L43.5,152" transform="translate(17.99 6.12)"/><path class="cls-28" d="M53.23,126.26c.21.43,3.42,9.2.21,13.26L43.82,122Z" transform="translate(17.99 6.12)"/></g><path class="cls-3" d="M18.58,158.34H77a1.7,1.7,0,0,0,1.7-1.7h0a1.71,1.71,0,0,0-1-1.54l-9.77-4.51s-11.7,2.62-35.22,0Z" transform="translate(17.99 6.12)"/><g class="cls-29"><path class="cls-28" d="M-18,158.34H49.35a2,2,0,0,0,1.95-2.06h0a2.08,2.08,0,0,0-1.13-1.87L38.9,148.93S25.41,152.1-1.71,149Z" transform="translate(17.99 6.12)"/></g><path class="cls-4" d="M44,139.3s.84-11-10.7-11.37c0,0,.44-5.31,8.14-6s12.83,4.49,12.83,17.11C54.3,139.09,48.74,143.58,44,139.3Z" transform="translate(17.99 6.12)"/><g class="cls-30"><path class="cls-28" d="M44.89,139.73s.85-6.2-1.07-10.9-7.49-8.13-12.41-4.92.22,11.55.22,11.55l12,4.06" transform="translate(17.99 6.12)"/></g><path class="cls-31" d="M49.92,130.32c0-3.38-2.81-5.77-5.92-6.41-.57-.12-.33-1,.23-.86,3.51.72,6.56,3.5,6.58,7.27a.45.45,0,0,1-.89,0Z" transform="translate(17.99 6.12)"/><path class="cls-31" d="M74.41,156.43c.22-1.54-2-2-3.06-2.51l-3.21-1.4c-.38-.16,0-.72.33-.55l4.22,1.85c1.34.6,2.59,1,2.34,2.79-.06.4-.68.23-.62-.18Z" transform="translate(17.99 6.12)"/><path class="cls-32" d="M97.79,96.79l.46.33,4.66,4.67a.17.17,0,0,1,0,.22,2.35,2.35,0,0,0,3.26,3.36.25.25,0,0,1,.33,0l1.64,1.65a.31.31,0,0,1,0,.44L103.67,112a.31.31,0,0,1-.44,0l-1.7-1.7a.21.21,0,0,1,0-.27,2.36,2.36,0,0,0-.33-2.92,2.24,2.24,0,0,0-3.07-.24l-2.4,2.4-1.23,2.46-17.1,17.09a1,1,0,0,1-1.49,0l-2.57-2.56a1.07,1.07,0,0,1,0-1.5l17.1-17.09,2.23-1L95.27,104l.06-.06,2-2-2-2a12.11,12.11,0,0,0-5.09-2.21.2.2,0,0,1-.13-.06l-1.43-1.43a.23.23,0,0,1,.07-.38A9.46,9.46,0,0,1,97.79,96.79Z" transform="translate(17.99 6.12)"/><path class="cls-32" d="M93.62,114.25l5,5a3.55,3.55,0,0,1,4.91.1l2.36,2.36a3.56,3.56,0,0,1,.28,4.7c-1.33-1.31-3.62-3.72-3.62-3.72l-3.32.86-1,3.44,3.66,3.67a3.56,3.56,0,0,1-4.64-.33L95,128a3.55,3.55,0,0,1-.1-4.91l-5-5Z" transform="translate(17.99 6.12)"/><path class="cls-32" d="M87.84,108.46l-5-5a3.55,3.55,0,0,0-.11-4.9l-2.36-2.36a3.55,3.55,0,0,0-4.7-.29c1.32,1.34,3.73,3.62,3.73,3.62l-.86,3.32-3.45,1-3.66-3.67a3.54,3.54,0,0,0,.33,4.64l2.36,2.36a3.55,3.55,0,0,0,4.9.11l5,5Z" transform="translate(17.99 6.12)"/><rect class="cls-5" x="131.68" y="124.58" width="3.89" height="23.18" transform="translate(285.24 278.47) rotate(180)"/><g class="cls-33"><rect class="cls-34" x="125.92" y="114.53" width="17.82" height="12.73" transform="translate(287.65 247.92) rotate(180)"/></g><rect class="cls-6" x="82.11" y="124.58" width="3.89" height="23.18" transform="translate(186.08 278.47) rotate(180)"/><g class="cls-35"><rect class="cls-34" x="76.35" y="114.53" width="17.82" height="12.73" transform="translate(188.5 247.92) rotate(180)"/></g><rect class="cls-7" x="77.69" y="120.56" width="61.9" height="5.36" transform="translate(235.26 252.61) rotate(180)"/><g class="cls-36"><rect class="cls-37" x="131.95" y="117.08" width="4.56" height="13.53" transform="translate(330.38 170.11) rotate(150)"/><rect class="cls-37" x="122.17" y="117.48" width="4.56" height="13.53" transform="translate(312.33 175.74) rotate(150)"/><rect class="cls-37" x="112.39" y="117.21" width="4.56" height="13.53" transform="translate(293.94 180.14) rotate(150)"/><rect class="cls-37" x="102.47" y="116.41" width="4.56" height="13.53" transform="translate(275.04 183.59) rotate(150)"/><rect class="cls-37" x="92.16" y="116.54" width="4.56" height="13.53" transform="translate(255.85 189) rotate(150)"/><rect class="cls-37" x="82.37" y="116.41" width="4.56" height="13.53" transform="translate(237.54 193.64) rotate(150)"/></g><path class="cls-38" d="M99.37,109.55a2.35,2.35,0,1,0,2.09-3.44.5.5,0,0,1-.49-.49v-2.54a.49.49,0,0,1,1,0v2.54l-.49-.49A3.33,3.33,0,1,1,98.53,110a.49.49,0,0,1,.84-.49Z" transform="translate(17.99 6.12)"/><path class="cls-38" d="M101.46,103.81h0a1.38,1.38,0,0,0,1.38-1.38v-2a1.38,1.38,0,0,0-1.38-1.39h0a1.38,1.38,0,0,0-1.38,1.39v2A1.38,1.38,0,0,0,101.46,103.81Z" transform="translate(17.99 6.12)"/><path class="cls-39" d="M213.24,167.57H153.4a3,3,0,0,1-3-3h0a3,3,0,0,1,3-3h59.84a3,3,0,0,1,3,3h0A3,3,0,0,1,213.24,167.57Z" transform="translate(17.99 6.12)"/><polyline class="cls-40" points="120.17 106.05 120.17 30.47 228.58 47.6 228.58 60.57"/><path class="cls-41" d="M169.9,42.47v122h26.55v-122h36.66L220.39,23.55h-.25l-20.86,0,0,0,0,0L178,23.5h0l-85.68-.1L81.39,42.47Zm.94,1.26L182,50.25l-10.92,6.39a.83.83,0,0,0-.28.28ZM183,50.79l10.86,6.32-11.12,6.51L171.85,57.3ZM172,43.33h21.81L183,49.7ZM195.5,71.76l-.28-.48.17-.28-11.74-6.83,10.92-6.39a.78.78,0,0,0,0-1.34l-10.66-6.2,11.59-6.78Zm-24.66.45L182,78.72l-10.92,6.4a.83.83,0,0,0-.28.28ZM183,79.27l10.86,6.32L182.72,92.1l-10.87-6.32Zm-11.67-7.88,11.41-6.67,11.66,6.78L183,78.18Zm24.19,28.85-.28-.48.17-.28-11.74-6.83,10.92-6.39a.78.78,0,0,0,0-1.34l-10.66-6.2,11.59-6.78Zm-24.66.45L182,107.2l-10.92,6.39a.86.86,0,0,0-.28.29ZM183,107.75l10.86,6.32-11.12,6.51-10.87-6.32Zm-11.66-7.88,11.4-6.67L194.38,100,183,106.66Zm24.18,28.85-.28-.48.17-.28-11.74-6.83,10.92-6.39a.78.78,0,0,0,0-1.34l-10.66-6.2,11.59-6.78Zm-24.66.45,11.2,6.51-10.92,6.39a.86.86,0,0,0-.28.29Zm.48-.82,11.4-6.67,11.66,6.78L183,135.14ZM195.5,156l-11.62-6.51,10.69-6.25a.78.78,0,0,0,0-1.34l-10.66-6.2,11.59-6.78Zm-12.57-7-11.07-6.2L183,136.23l10.86,6.32Zm-.94.55L170.84,156V143.13a.86.86,0,0,0,.29.28Zm-11.15-22V114.65a.86.86,0,0,0,.29.28l10.65,6.2Zm0-28.48V86.17a.86.86,0,0,0,.29.28l10.65,6.2Zm0-28.48V57.69a.86.86,0,0,0,.29.28l10.65,6.2Zm0,92.93v-6.4l12.1-7.08,12.56,7v6.44ZM124.39,41.07l-9.77-16.7,19.47,0ZM135,24.7l9.85,16.83H125.21Zm.91-.3,19.45,0-9.69,16.65Zm20.38.3,9.85,16.83H146.5Zm.93-.28,19.41,0L167,41.06Zm20.35.28,9.85,16.83H167.79Zm-84.75-.35,20.7,0,10,17.16H83Zm85.7.09,19.39,0-9.66,16.6Zm20.34.26,9.85,16.83H189.08Zm1-.23,19.36,0-9.65,16.58Zm31.51,17.06h-21L220.1,24.8Z" transform="translate(17.99 6.12)"/><path class="cls-42" d="M196,42.86H170.37V12.8A12.8,12.8,0,0,1,183.17,0h0A12.81,12.81,0,0,1,196,12.8Z" transform="translate(17.99 6.12)"/><path class="cls-8" d="M191.9,26.07H174.45a1.34,1.34,0,0,1-1.34-1.34V12.54A10.06,10.06,0,0,1,183.17,2.47h0a10.07,10.07,0,0,1,10.07,10.07V24.73A1.34,1.34,0,0,1,191.9,26.07Z" transform="translate(17.99 6.12)"/><g class="cls-43"><rect class="cls-44" x="161.89" y="7.62" width="44.3" height="2.3" transform="translate(53.91 124.48) rotate(-39.22)"/><rect class="cls-44" x="171.38" y="22.01" width="44.3" height="2.3" transform="translate(46.95 133.72) rotate(-39.22)"/><rect class="cls-44" x="164.91" y="12.3" width="44.3" height="5.46" transform="translate(50.63 127.8) rotate(-39.22)"/></g><path class="cls-45" d="M191.3,40.13H175.05a2.23,2.23,0,0,1-2.23-2.23v-7a2.24,2.24,0,0,1,2.23-2.24H191.3a2.24,2.24,0,0,1,2.23,2.24v7A2.23,2.23,0,0,1,191.3,40.13ZM175.05,29.2a1.66,1.66,0,0,0-1.66,1.66v7a1.66,1.66,0,0,0,1.66,1.65H191.3A1.65,1.65,0,0,0,193,37.9v-7a1.65,1.65,0,0,0-1.65-1.66Z" transform="translate(17.99 6.12)"/><rect class="cls-46" x="202.58" y="52.79" width="16.5" height="19.33" rx="3.09" transform="translate(439.64 131.03) rotate(180)"/></g></g></g></svg>